<svg width="20" height="20" viewBox="0 0 20 20" fill="none" xmlns="http://www.w3.org/2000/svg">
<path d="M1.875 1.875C1.70924 1.875 1.55027 1.94085 1.43306 2.05806C1.31585 2.17527 1.25 2.33424 1.25 2.5C1.25 2.66576 1.31585 2.82473 1.43306 2.94194C1.55027 3.05915 1.70924 3.125 1.875 3.125H3.03C3.17167 3.125 3.295 3.22 3.33167 3.35667L5.46333 11.35C4.79381 11.5244 4.20105 11.916 3.77791 12.4634C3.35477 13.0108 3.12514 13.6831 3.125 14.375C3.125 14.72 3.405 15 3.75 15H16.875C17.0408 15 17.1997 14.9342 17.3169 14.8169C17.4342 14.6997 17.5 14.5408 17.5 14.375C17.5 14.2092 17.4342 14.0503 17.3169 13.9331C17.1997 13.8158 17.0408 13.75 16.875 13.75H4.48167C4.61095 13.3843 4.85043 13.0678 5.16713 12.8439C5.48383 12.62 5.86216 12.4999 6.25 12.5H15.5983C15.7154 12.5 15.8301 12.4671 15.9295 12.4051C16.0288 12.3431 16.1086 12.2544 16.16 12.1492C17.1114 10.1968 17.9354 8.18476 18.6267 6.12583C18.654 6.04438 18.6642 5.95818 18.6567 5.8726C18.6492 5.78702 18.6242 5.7039 18.5831 5.62844C18.5421 5.55298 18.4859 5.48679 18.4181 5.43401C18.3503 5.38122 18.2724 5.34298 18.1892 5.32167C13.794 4.20096 9.26837 3.67488 4.73333 3.7575L4.54 3.035C4.4513 2.70228 4.25518 2.40819 3.98211 2.19842C3.70905 1.98864 3.37434 1.87495 3.03 1.875H1.875ZM3.125 16.875C3.125 16.5435 3.2567 16.2255 3.49112 15.9911C3.72554 15.7567 4.04348 15.625 4.375 15.625C4.70652 15.625 5.02446 15.7567 5.25888 15.9911C5.4933 16.2255 5.625 16.5435 5.625 16.875C5.625 17.2065 5.4933 17.5245 5.25888 17.7589C5.02446 17.9933 4.70652 18.125 4.375 18.125C4.04348 18.125 3.72554 17.9933 3.49112 17.7589C3.2567 17.5245 3.125 17.2065 3.125 16.875ZM13.75 16.875C13.75 16.5435 13.8817 16.2255 14.1161 15.9911C14.3505 15.7567 14.6685 15.625 15 15.625C15.3315 15.625 15.6495 15.7567 15.8839 15.9911C16.1183 16.2255 16.25 16.5435 16.25 16.875C16.25 17.2065 16.1183 17.5245 15.8839 17.7589C15.6495 17.9933 15.3315 18.125 15 18.125C14.6685 18.125 14.3505 17.9933 14.1161 17.7589C13.8817 17.5245 13.75 17.2065 13.75 16.875Z" fill="#212121"/>
</svg>
