<svg width="20" height="20" viewBox="0 0 20 20" fill="none" xmlns="http://www.w3.org/2000/svg">
<path fill-rule="evenodd" clip-rule="evenodd" d="M2.1875 5.625C2.1875 5.37636 2.28627 5.1379 2.46209 4.96209C2.6379 4.78627 2.87636 4.6875 3.125 4.6875C3.37364 4.6875 3.6121 4.78627 3.78791 4.96209C3.96373 5.1379 4.0625 5.37636 4.0625 5.625C4.0625 5.87364 3.96373 6.1121 3.78791 6.28791C3.6121 6.46373 3.37364 6.5625 3.125 6.5625C2.87636 6.5625 2.6379 6.46373 2.46209 6.28791C2.28627 6.1121 2.1875 5.87364 2.1875 5.625ZM6.25 5.625C6.25 5.45924 6.31585 5.30027 6.43306 5.18306C6.55027 5.06585 6.70924 5 6.875 5H16.875C17.0408 5 17.1997 5.06585 17.3169 5.18306C17.4342 5.30027 17.5 5.45924 17.5 5.625C17.5 5.79076 17.4342 5.94973 17.3169 6.06694C17.1997 6.18415 17.0408 6.25 16.875 6.25H6.875C6.70924 6.25 6.55027 6.18415 6.43306 6.06694C6.31585 5.94973 6.25 5.79076 6.25 5.625ZM2.1875 10C2.1875 9.75136 2.28627 9.5129 2.46209 9.33709C2.6379 9.16127 2.87636 9.0625 3.125 9.0625C3.37364 9.0625 3.6121 9.16127 3.78791 9.33709C3.96373 9.5129 4.0625 9.75136 4.0625 10C4.0625 10.2486 3.96373 10.4871 3.78791 10.6629C3.6121 10.8387 3.37364 10.9375 3.125 10.9375C2.87636 10.9375 2.6379 10.8387 2.46209 10.6629C2.28627 10.4871 2.1875 10.2486 2.1875 10ZM6.25 10C6.25 9.83424 6.31585 9.67527 6.43306 9.55806C6.55027 9.44085 6.70924 9.375 6.875 9.375H16.875C17.0408 9.375 17.1997 9.44085 17.3169 9.55806C17.4342 9.67527 17.5 9.83424 17.5 10C17.5 10.1658 17.4342 10.3247 17.3169 10.4419C17.1997 10.5592 17.0408 10.625 16.875 10.625H6.875C6.70924 10.625 6.55027 10.5592 6.43306 10.4419C6.31585 10.3247 6.25 10.1658 6.25 10ZM2.1875 14.375C2.1875 14.1264 2.28627 13.8879 2.46209 13.7121C2.6379 13.5363 2.87636 13.4375 3.125 13.4375C3.37364 13.4375 3.6121 13.5363 3.78791 13.7121C3.96373 13.8879 4.0625 14.1264 4.0625 14.375C4.0625 14.6236 3.96373 14.8621 3.78791 15.0379C3.6121 15.2137 3.37364 15.3125 3.125 15.3125C2.87636 15.3125 2.6379 15.2137 2.46209 15.0379C2.28627 14.8621 2.1875 14.6236 2.1875 14.375ZM6.25 14.375C6.25 14.2092 6.31585 14.0503 6.43306 13.9331C6.55027 13.8158 6.70924 13.75 6.875 13.75H16.875C17.0408 13.75 17.1997 13.8158 17.3169 13.9331C17.4342 14.0503 17.5 14.2092 17.5 14.375C17.5 14.5408 17.4342 14.6997 17.3169 14.8169C17.1997 14.9342 17.0408 15 16.875 15H6.875C6.70924 15 6.55027 14.9342 6.43306 14.8169C6.31585 14.6997 6.25 14.5408 6.25 14.375Z" fill="white"/>
</svg>
