<svg width="20" height="20" viewBox="0 0 20 20" fill="none" xmlns="http://www.w3.org/2000/svg">
<g clip-path="url(#clip0_140_1549)">
<rect width="20" height="20" rx="10" fill="#4F4F4F"/>
<path d="M15.7754 5.7582C15.7011 5.68335 15.6128 5.62394 15.5155 5.58339C15.4182 5.54285 15.3138 5.52197 15.2084 5.52197C15.1029 5.52197 14.9985 5.54285 14.9012 5.58339C14.8039 5.62394 14.7156 5.68335 14.6413 5.7582L8.69168 11.7158L6.19203 9.2082C6.11495 9.13374 6.02395 9.07519 5.92424 9.03589C5.82453 8.9966 5.71806 8.97733 5.6109 8.97918C5.50374 8.98104 5.398 9.00398 5.29971 9.0467C5.20141 9.08942 5.1125 9.15108 5.03804 9.22817C4.96358 9.30525 4.90503 9.39624 4.86573 9.49595C4.82644 9.59567 4.80717 9.70214 4.80902 9.8093C4.81087 9.91646 4.83382 10.0222 4.87654 10.1205C4.91926 10.2188 4.98092 10.3077 5.058 10.3822L8.12467 13.4488C8.19891 13.5237 8.28724 13.5831 8.38456 13.6236C8.48188 13.6642 8.58626 13.6851 8.69168 13.6851C8.79711 13.6851 8.90149 13.6642 8.99881 13.6236C9.09613 13.5831 9.18446 13.5237 9.2587 13.4488L15.7754 6.93216C15.8564 6.85738 15.9211 6.76661 15.9654 6.66559C16.0096 6.56456 16.0325 6.45547 16.0325 6.34518C16.0325 6.23489 16.0096 6.1258 15.9654 6.02477C15.9211 5.92375 15.8564 5.83298 15.7754 5.7582Z" fill="white"/>
</g>
<rect x="0.833333" y="0.833333" width="18.3333" height="18.3333" rx="9.16667" stroke="#4F4F4F" stroke-width="1.66667"/>
<defs>
<clipPath id="clip0_140_1549">
<rect width="20" height="20" rx="10" fill="white"/>
</clipPath>
</defs>
</svg>
