<svg width="44" height="44" viewBox="0 0 44 44" fill="none" xmlns="http://www.w3.org/2000/svg">
<path d="M6.875 11C6.875 9.90598 7.3096 8.85677 8.08318 8.08318C8.85677 7.3096 9.90598 6.875 11 6.875H15.125C16.219 6.875 17.2682 7.3096 18.0418 8.08318C18.8154 8.85677 19.25 9.90598 19.25 11V15.125C19.25 16.219 18.8154 17.2682 18.0418 18.0418C17.2682 18.8154 16.219 19.25 15.125 19.25H11C9.90598 19.25 8.85677 18.8154 8.08318 18.0418C7.3096 17.2682 6.875 16.219 6.875 15.125V11ZM6.875 28.875C6.875 27.781 7.3096 26.7318 8.08318 25.9582C8.85677 25.1846 9.90598 24.75 11 24.75H15.125C16.219 24.75 17.2682 25.1846 18.0418 25.9582C18.8154 26.7318 19.25 27.781 19.25 28.875V33C19.25 34.094 18.8154 35.1432 18.0418 35.9168C17.2682 36.6904 16.219 37.125 15.125 37.125H11C9.90598 37.125 8.85677 36.6904 8.08318 35.9168C7.3096 35.1432 6.875 34.094 6.875 33V28.875ZM24.75 11C24.75 9.90598 25.1846 8.85677 25.9582 8.08318C26.7318 7.3096 27.781 6.875 28.875 6.875H33C34.094 6.875 35.1432 7.3096 35.9168 8.08318C36.6904 8.85677 37.125 9.90598 37.125 11V15.125C37.125 16.219 36.6904 17.2682 35.9168 18.0418C35.1432 18.8154 34.094 19.25 33 19.25H28.875C27.781 19.25 26.7318 18.8154 25.9582 18.0418C25.1846 17.2682 24.75 16.219 24.75 15.125V11ZM24.75 28.875C24.75 27.781 25.1846 26.7318 25.9582 25.9582C26.7318 25.1846 27.781 24.75 28.875 24.75H33C34.094 24.75 35.1432 25.1846 35.9168 25.9582C36.6904 26.7318 37.125 27.781 37.125 28.875V33C37.125 34.094 36.6904 35.1432 35.9168 35.9168C35.1432 36.6904 34.094 37.125 33 37.125H28.875C27.781 37.125 26.7318 36.6904 25.9582 35.9168C25.1846 35.1432 24.75 34.094 24.75 33V28.875Z" stroke="#47555F" stroke-opacity="0.5" stroke-width="1.5" stroke-linecap="round" stroke-linejoin="round"/>
</svg>
