<svg width="20" height="20" viewBox="0 0 20 20" fill="none" xmlns="http://www.w3.org/2000/svg">
<path fill-rule="evenodd" clip-rule="evenodd" d="M5.26667 2.14749C8.41166 1.78238 11.5883 1.78238 14.7333 2.14749C15.9808 2.29249 16.875 3.36416 16.875 4.58916V17.5C16.8749 17.6064 16.8475 17.7111 16.7956 17.804C16.7437 17.8969 16.6689 17.975 16.5784 18.0309C16.4878 18.0868 16.3845 18.1187 16.2782 18.1235C16.1718 18.1283 16.0661 18.1059 15.9708 18.0583L10 15.0742L4.02917 18.06C3.93382 18.1076 3.82788 18.13 3.72142 18.1251C3.61496 18.1203 3.51151 18.0883 3.42091 18.0321C3.33031 17.976 3.25556 17.8977 3.20377 17.8045C3.15198 17.7114 3.12486 17.6066 3.125 17.5V4.58916C3.125 3.36416 4.01917 2.29249 5.26667 2.14749Z" fill="#212121"/>
</svg>
