<svg width="44" height="44" viewBox="0 0 44 44" fill="none" xmlns="http://www.w3.org/2000/svg">
<path d="M6.875 22H37.125M6.875 28.875H37.125M6.875 35.75H37.125M10.3125 8.25H33.6875C34.5992 8.25 35.4735 8.61216 36.1182 9.25682C36.7628 9.90148 37.125 10.7758 37.125 11.6875C37.125 12.5992 36.7628 13.4735 36.1182 14.1182C35.4735 14.7628 34.5992 15.125 33.6875 15.125H10.3125C9.40082 15.125 8.52648 14.7628 7.88182 14.1182C7.23716 13.4735 6.875 12.5992 6.875 11.6875C6.875 10.7758 7.23716 9.90148 7.88182 9.25682C8.52648 8.61216 9.40082 8.25 10.3125 8.25V8.25Z" stroke="#47555F" stroke-opacity="0.5" stroke-width="1.5" stroke-linecap="round" stroke-linejoin="round"/>
</svg>
